<svg width="918" height="499" viewBox="0 0 918 499" fill="none" xmlns="http://www.w3.org/2000/svg">
<path d="M447.301 11.1022C437.401 17.2022 405.901 36.1022 377.301 53.2022C348.701 70.2022 317.701 88.9022 308.301 94.7022C299.001 100.502 287.701 107.302 283.301 109.902C278.901 112.502 267.701 119.302 258.501 125.002C231.201 141.902 209.801 154.802 202.801 158.602C199.201 160.602 193.201 164.002 189.301 166.302L182.301 170.402L204.701 170.702C217.101 170.802 227.501 170.502 228.201 170.002C229.201 169.202 242.901 162.002 281.801 141.602C288.101 138.302 295.801 134.302 298.801 132.602C301.801 130.902 309.001 127.002 314.801 123.902C324.701 118.502 332.001 114.502 356.101 101.202C368.901 94.2022 396.701 79.1022 416.301 68.6022C424.601 64.2022 438.101 56.9022 446.501 52.3022C454.801 47.7022 462.101 43.9022 462.801 43.9022C463.601 43.9022 463.801 78.2022 463.601 171.902C463.301 299.302 463.301 300.002 465.301 300.502C466.401 300.702 562.401 300.802 678.601 300.702C794.701 300.502 917.5 300.402 917.5 300.402L917.601 289.402L917.301 276.902L796.301 276.702L675.301 276.402L674.801 220.202C674.501 189.302 674.101 163.802 673.801 163.602C673.501 163.302 664.101 158.202 652.801 152.202C630.001 140.002 605.001 126.202 603.101 124.602C602.201 123.902 601.801 119.802 601.801 110.302C601.801 102.902 602.001 96.9022 602.401 96.9022C602.701 96.9022 605.401 98.2022 608.401 99.9022C615.601 103.902 621.801 107.302 636.801 115.402C643.701 119.202 659.801 128.002 672.601 135.102C685.401 142.102 696.301 147.902 696.801 147.902C697.901 147.902 698.201 135.002 697.201 130.302C696.701 127.902 694.701 126.202 684.501 120.202C677.801 116.202 668.101 110.702 662.901 107.902C646.801 99.2022 642.701 96.9022 627.801 88.4022C619.801 83.9022 605.401 75.8022 595.801 70.4022C586.201 65.0022 572.901 57.6022 566.301 53.9022C559.701 50.2022 540.601 39.6022 523.801 30.4022C507.001 21.2022 489.901 11.7022 485.801 9.40222C474.901 3.20222 468.001 -0.0977722 466.601 0.00222778C465.901 0.102228 457.201 5.1022 447.301 11.1022ZM570.801 80.1022C575.001 82.5022 576.801 84.1022 577.201 85.9022C577.401 87.3022 577.701 130.602 577.801 182.102V275.902H570.801H563.801V176.402C563.801 121.702 564.101 76.9022 564.401 76.9022C564.701 76.9022 567.601 78.4022 570.801 80.1022ZM503.301 92.8022C503.801 93.2022 508.601 95.9022 513.801 98.7022C519.001 101.502 526.501 105.502 530.301 107.602L537.301 111.402L537.601 135.902C537.701 149.402 537.601 161.002 537.301 161.702C536.601 163.502 498.001 143.902 493.401 139.402C492.201 138.202 492.001 134.102 492.401 113.702C492.601 100.302 492.801 89.1022 492.801 88.7022C492.801 88.0022 501.301 91.3022 503.301 92.8022ZM622.601 178.002C622.801 185.202 622.701 191.702 622.401 192.502C622.001 193.502 619.401 192.502 611.901 188.602L601.801 183.402V168.702V153.902L612.101 159.402L622.301 164.802L622.601 178.002ZM641.401 174.302L651.101 178.702L651.301 193.102C651.401 201.002 651.401 207.702 651.201 208.102C651.001 208.402 646.201 206.402 640.501 203.602L630.301 198.402L630.001 184.102C629.901 175.602 630.101 169.902 630.701 169.902C631.201 169.902 636.001 171.902 641.401 174.302ZM509.301 184.102C515.901 187.302 524.901 191.902 529.301 194.202L537.301 198.502L537.601 222.202C537.701 237.902 537.501 245.902 536.801 245.902C535.301 245.902 493.401 224.802 492.701 223.702C492.301 223.102 492.201 212.702 492.401 200.502C492.701 188.402 492.801 178.002 492.801 177.602C492.801 176.302 496.401 177.702 509.301 184.102ZM613.401 198.202L622.501 203.002L622.701 222.402C622.901 237.902 622.601 241.902 621.601 241.902C619.801 241.902 601.401 231.602 601.601 230.602C601.701 230.202 601.801 221.502 601.801 211.302C601.801 197.002 602.101 192.802 603.101 193.102C603.701 193.302 608.401 195.602 613.401 198.202ZM641.101 212.102L650.801 216.802V236.402C650.801 247.102 650.601 255.902 650.301 255.902C650.001 255.902 645.301 253.602 639.801 250.902L629.801 245.902V226.302C629.801 215.502 630.101 206.902 630.601 207.102C631.001 207.302 635.701 209.602 641.101 212.102Z" fill="#F44336"/>
<path d="M427.4 104.104L415.9 109.804L415.6 123.004C415.5 130.704 415.7 136.304 416.3 136.304C416.8 136.304 422.6 133.704 429.3 130.604L441.4 124.904V111.604C441.4 101.604 441.1 98.3044 440.2 98.3044C439.5 98.4044 433.7 100.904 427.4 104.104Z" fill="#F44336"/>
<path d="M396.2 119.104L385.4 124.704V138.004C385.4 145.304 385.6 151.304 385.7 151.304C386.3 151.304 402.4 143.504 406.4 141.304L409.9 139.404L410.2 126.404C410.4 114.404 410.3 113.304 408.7 113.404C407.7 113.504 402.1 116.104 396.2 119.104Z" fill="#F44336"/>
<path d="M369.9 131.605C354.9 138.605 356.4 136.405 356.4 151.405C356.4 158.605 356.7 164.305 357.2 164.105C359.4 162.905 371.6 157.305 375.7 155.505L380.4 153.405V140.405C380.4 133.205 380.1 127.305 379.7 127.405C379.2 127.405 374.8 129.305 369.9 131.605Z" fill="#F44336"/>
<path d="M434.9 134.204C432.2 135.704 426.6 138.304 422.7 140.104L415.4 143.304V156.904V170.504L417.9 169.904C420.3 169.304 435.7 162.504 439.4 160.404C440.6 159.804 441 156.804 441.2 145.404C441.3 137.704 441.1 131.404 440.7 131.404C440.2 131.504 437.7 132.804 434.9 134.204Z" fill="#F44336"/>
<path d="M403.4 149.104C400.3 150.604 395.1 153.004 391.6 154.604L385.4 157.304V170.304C385.4 178.204 385.8 183.304 386.4 183.304C387.7 183.304 407.5 174.404 409.2 173.104C410.5 171.904 411 146.204 409.7 146.404C409.2 146.404 406.4 147.704 403.4 149.104Z" fill="#F44336"/>
<path d="M372.9 162.704C369.6 164.404 364.5 166.804 361.7 168.004L356.4 170.204V182.604C356.4 189.404 356.7 195.204 357 195.504C357.6 196.104 377 187.904 379.2 186.104C380.5 184.904 381 159.204 379.7 159.404C379.2 159.504 376.2 161.004 372.9 162.704Z" fill="#F44336"/>
<path d="M74.1996 194.004C73.2996 197.804 72.8996 201.104 73.2996 201.604C73.6996 202.004 107.5 202.204 148.5 202.104L222.9 201.804L223.2 194.504L223.5 187.304H149.6H75.7996L74.1996 194.004Z" fill="#F44336"/>
<path d="M693.4 194.904V202.404L779.4 202.204C826.7 202.104 865.4 201.704 865.4 201.404C865.4 201.104 864.4 197.804 863.3 194.104L861.1 187.304H777.3H693.4V194.904Z" fill="#F44336"/>
<path d="M431.9 194.004C427.5 195.904 420.3 199.004 415.9 200.704L407.9 203.904V252.804V301.804L424.7 302.104L441.4 302.304V246.304C441.4 215.504 441.1 190.304 440.7 190.404C440.2 190.404 436.3 192.004 431.9 194.004Z" fill="#F44336"/>
<path d="M382.9 212.904C379.1 214.704 371.7 217.904 366.7 219.904L357.4 223.604V250.504V277.404L347.7 277.104L316.1 277.504L281 277.304C261.7 277.204 245.5 277.204 244.9 277.204C244.4 277.204 189 277.504 121.9 277.804L0 278.304L0.3 290.604C0.4 297.304 0.7 302.804 0.7 302.804C0.8 302.804 88.8 302.704 196.2 302.504L391.4 302.204V292.304C391.4 292.304 391.9 209.904 390.7 209.704C390.3 209.504 386.8 211.004 382.9 212.904Z" fill="#F44336"/>
<path d="M693.4 224.804V232.304H763.7C802.3 232.304 842.2 232.004 852.4 231.604L870.9 231.004L869.9 224.704L869 218.304L792.9 218.204C751.1 218.204 711.6 218.004 705.2 217.704L693.4 217.204V224.804Z" fill="#F44336"/>
<path d="M45.7999 223.005C45.4999 225.705 44.7999 228.505 44.2999 229.405C43.4999 230.905 45.3999 231.105 64.6999 231.805C76.2999 232.105 116.7 232.305 154.4 232.105L222.9 231.805L223.2 225.005L223.5 218.305H135H46.4999L45.7999 223.005Z" fill="#F44336"/>
<path d="M42.0997 253.504C41.7997 256.904 41.7997 260.104 41.9997 260.504C42.2997 260.904 83.0997 261.104 132.7 261.004L222.9 260.804L223.2 254.004L223.5 247.304H133.1H42.6997L42.0997 253.504Z" fill="#F44336"/>
<path d="M693.4 254.304V261.304L783.6 261.104L873.8 260.804L873.5 254.804C873.4 251.504 873 248.504 872.8 248.104C872.5 247.604 832 247.304 782.8 247.304H693.4V254.304Z" fill="#F44336"/>
<path d="M393.6 257.505C392.8 258.305 392.4 262.405 392.4 269.605V280.405L395.2 280.105L397.9 279.805L398.2 268.005C398.4 257.205 398.3 256.305 396.6 256.305C395.6 256.305 394.3 256.805 393.6 257.505Z" fill="#F44336"/>
<path d="M72.5 398.402V328.584H102.773C108.091 328.584 112.557 329.3 116.17 330.732C119.807 332.163 122.545 334.186 124.386 336.8C126.25 339.413 127.182 342.493 127.182 346.038C127.182 348.607 126.614 350.948 125.477 353.061C124.364 355.175 122.795 356.948 120.773 358.379C118.75 359.788 116.386 360.766 113.682 361.311V361.993C116.682 362.107 119.409 362.868 121.864 364.277C124.318 365.663 126.273 367.584 127.727 370.038C129.182 372.47 129.909 375.334 129.909 378.629C129.909 382.448 128.909 385.845 126.909 388.823C124.932 391.8 122.114 394.141 118.455 395.845C114.795 397.55 110.432 398.402 105.364 398.402H72.5ZM91.4545 383.266H100.318C103.5 383.266 105.886 382.675 107.477 381.493C109.068 380.288 109.864 378.516 109.864 376.175C109.864 374.538 109.489 373.152 108.739 372.016C107.989 370.879 106.92 370.016 105.534 369.425C104.17 368.834 102.523 368.538 100.591 368.538H91.4545V383.266ZM91.4545 356.811H99.2273C100.886 356.811 102.352 356.55 103.625 356.027C104.898 355.504 105.886 354.754 106.591 353.777C107.318 352.777 107.682 351.561 107.682 350.129C107.682 347.97 106.909 346.323 105.364 345.186C103.818 344.027 101.864 343.448 99.5 343.448H91.4545V356.811ZM162.441 398.402H141.987L165.032 328.584H190.941L213.987 398.402H193.532L178.26 347.811H177.714L162.441 398.402ZM158.623 370.857H197.078V385.038H158.623V370.857ZM269.709 328.584H288.664V373.311C288.664 378.629 287.391 383.232 284.846 387.118C282.323 390.982 278.8 393.97 274.278 396.084C269.755 398.175 264.505 399.22 258.528 399.22C252.505 399.22 247.232 398.175 242.709 396.084C238.187 393.97 234.664 390.982 232.141 387.118C229.641 383.232 228.391 378.629 228.391 373.311V328.584H247.346V371.675C247.346 373.834 247.823 375.766 248.778 377.47C249.732 379.152 251.05 380.47 252.732 381.425C254.437 382.379 256.369 382.857 258.528 382.857C260.709 382.857 262.641 382.379 264.323 381.425C266.005 380.47 267.323 379.152 268.278 377.47C269.232 375.766 269.709 373.834 269.709 371.675V328.584ZM305.352 398.402V328.584H355.671V343.857H324.307V355.857H353.08V371.129H324.307V383.129H355.534V398.402H305.352ZM372.751 398.402V328.584H391.706V383.129H419.933V398.402H372.751ZM435.275 398.402V328.584H485.593V343.857H454.23V355.857H483.002V371.129H454.23V383.129H485.457V398.402H435.275ZM502.674 328.584H526.265L542.492 368.129H543.31L559.537 328.584H583.128V398.402H564.583V358.038H564.037L548.492 397.857H537.31L521.765 357.766H521.219V398.402H502.674V328.584ZM599.791 398.402V328.584H650.109V343.857H618.746V355.857H647.519V371.129H618.746V383.129H649.973V398.402H599.791ZM727.599 328.584V398.402H711.781L686.554 361.72H686.145V398.402H667.19V328.584H683.281L708.099 365.129H708.645V328.584H727.599ZM742.336 343.857V328.584H803.018V343.857H782.018V398.402H763.336V343.857H742.336ZM817.831 398.402V328.584H868.149V343.857H836.786V355.857H865.559V371.129H836.786V383.129H868.013V398.402H817.831Z" fill="white"/>
<path d="M288.136 483.402L295.864 436.857H327.227L325.864 444.97H304.341L302.523 456.061H322.432L321.068 464.175H301.159L299.341 475.288H320.955L319.591 483.402H288.136ZM356.76 436.857L363.487 452.72H363.851L375.942 436.857H387.374L369.351 460.129L379.965 483.402H368.851L361.942 467.516H361.578L349.397 483.402H337.919L356.397 460.129L345.919 436.857H356.76ZM398.674 483.402L406.401 436.857H424.765C428.28 436.857 431.166 437.531 433.424 438.879C435.697 440.213 437.287 442.069 438.197 444.448C439.121 446.811 439.333 449.538 438.833 452.629C438.318 455.735 437.197 458.47 435.469 460.834C433.757 463.182 431.53 465.016 428.787 466.334C426.045 467.652 422.878 468.311 419.287 468.311H407.583L408.878 460.425H418.992C420.901 460.425 422.53 460.099 423.878 459.448C425.242 458.781 426.325 457.864 427.128 456.698C427.931 455.516 428.454 454.16 428.697 452.629C428.954 451.069 428.871 449.713 428.447 448.561C428.022 447.41 427.242 446.516 426.106 445.879C424.984 445.228 423.477 444.902 421.583 444.902H414.947L408.515 483.402H398.674ZM452.911 483.402L460.639 436.857H492.002L490.639 444.97H469.116L467.298 456.061H487.207L485.843 464.175H465.934L464.116 475.288H485.73L484.366 483.402H452.911ZM504.899 483.402L512.626 436.857H530.99C534.505 436.857 537.399 437.478 539.672 438.72C541.959 439.963 543.566 441.728 544.49 444.016C545.429 446.288 545.649 448.97 545.149 452.061C544.634 455.152 543.52 457.804 541.808 460.016C540.111 462.228 537.899 463.932 535.172 465.129C532.459 466.311 529.316 466.902 525.74 466.902H513.444L514.808 458.993H525.49C527.369 458.993 528.975 458.735 530.308 458.22C531.641 457.705 532.694 456.932 533.467 455.902C534.255 454.872 534.77 453.591 535.012 452.061C535.27 450.501 535.179 449.198 534.74 448.152C534.3 447.091 533.505 446.288 532.353 445.743C531.202 445.182 529.687 444.902 527.808 444.902H521.172L514.74 483.402H504.899ZM533.535 462.22L541.603 483.402H530.74L522.922 462.22H533.535ZM564.665 444.97L566.028 436.857H604.256L602.892 444.97H588.642L582.278 483.402H572.551L578.915 444.97H564.665ZM615.624 483.402L623.351 436.857H654.715L653.351 444.97H631.828L630.01 456.061H649.919L648.556 464.175H628.647L626.828 475.288H648.442L647.078 483.402H615.624Z" fill="white"/>
</svg>
